<mxfile host="app.diagrams.net" modified="2021-05-07T06:23:44.299Z" agent="5.0 (Windows NT 10.0; Win64; x64) AppleWebKit/537.36 (KHTML, like Gecko) Chrome/90.0.4430.93 Safari/537.36" etag="a65firlp1sj85Ch4nMHz" version="14.6.9" type="github">
  <diagram id="0kVkIlmmgISIjedjuV7p" name="Page-1">
    <mxGraphModel dx="734" dy="674" grid="1" gridSize="10" guides="1" tooltips="1" connect="1" arrows="1" fold="1" page="1" pageScale="1" pageWidth="1169" pageHeight="827" math="0" shadow="0">
      <root>
        <mxCell id="0" />
        <mxCell id="1" parent="0" />
        <mxCell id="JWJ-mv_oLn-hZATooN6I-1" value="Flight Controller" style="rounded=0;whiteSpace=wrap;html=1;fillColor=#e1d5e7;strokeColor=#9673a6;fontStyle=1" vertex="1" parent="1">
          <mxGeometry x="840" y="570" width="120" height="60" as="geometry" />
        </mxCell>
        <mxCell id="JWJ-mv_oLn-hZATooN6I-7" style="edgeStyle=orthogonalEdgeStyle;rounded=0;orthogonalLoop=1;jettySize=auto;html=1;exitX=1;exitY=0.5;exitDx=0;exitDy=0;entryX=0;entryY=0.5;entryDx=0;entryDy=0;startArrow=classic;startFill=1;" edge="1" parent="1" source="JWJ-mv_oLn-hZATooN6I-2" target="JWJ-mv_oLn-hZATooN6I-1">
          <mxGeometry relative="1" as="geometry" />
        </mxCell>
        <mxCell id="JWJ-mv_oLn-hZATooN6I-8" value="UART" style="edgeLabel;html=1;align=center;verticalAlign=middle;resizable=0;points=[];" vertex="1" connectable="0" parent="JWJ-mv_oLn-hZATooN6I-7">
          <mxGeometry x="0.3252" y="3" relative="1" as="geometry">
            <mxPoint x="-13" y="-7" as="offset" />
          </mxGeometry>
        </mxCell>
        <mxCell id="JWJ-mv_oLn-hZATooN6I-17" style="edgeStyle=orthogonalEdgeStyle;rounded=0;orthogonalLoop=1;jettySize=auto;html=1;exitX=0.5;exitY=0;exitDx=0;exitDy=0;entryX=0.5;entryY=1;entryDx=0;entryDy=0;dashed=1;startArrow=none;startFill=0;endArrow=none;endFill=0;" edge="1" parent="1" source="JWJ-mv_oLn-hZATooN6I-2" target="JWJ-mv_oLn-hZATooN6I-13">
          <mxGeometry relative="1" as="geometry" />
        </mxCell>
        <mxCell id="JWJ-mv_oLn-hZATooN6I-2" value="Onboard Computer" style="rounded=0;whiteSpace=wrap;html=1;fillColor=#e1d5e7;strokeColor=#9673a6;fontStyle=1" vertex="1" parent="1">
          <mxGeometry x="650" y="570" width="120" height="60" as="geometry" />
        </mxCell>
        <mxCell id="JWJ-mv_oLn-hZATooN6I-19" style="edgeStyle=orthogonalEdgeStyle;rounded=0;orthogonalLoop=1;jettySize=auto;html=1;entryX=0.5;entryY=1;entryDx=0;entryDy=0;dashed=1;startArrow=none;startFill=0;endArrow=none;endFill=0;exitX=0.5;exitY=0;exitDx=0;exitDy=0;" edge="1" parent="1" source="JWJ-mv_oLn-hZATooN6I-32" target="JWJ-mv_oLn-hZATooN6I-2">
          <mxGeometry relative="1" as="geometry">
            <mxPoint x="840" y="680" as="sourcePoint" />
          </mxGeometry>
        </mxCell>
        <mxCell id="JWJ-mv_oLn-hZATooN6I-20" style="edgeStyle=orthogonalEdgeStyle;rounded=0;orthogonalLoop=1;jettySize=auto;html=1;entryX=0.25;entryY=1;entryDx=0;entryDy=0;dashed=1;startArrow=none;startFill=0;endArrow=none;endFill=0;" edge="1" parent="1" source="JWJ-mv_oLn-hZATooN6I-32" target="JWJ-mv_oLn-hZATooN6I-1">
          <mxGeometry relative="1" as="geometry">
            <mxPoint x="770" y="710" as="sourcePoint" />
          </mxGeometry>
        </mxCell>
        <mxCell id="JWJ-mv_oLn-hZATooN6I-18" style="edgeStyle=orthogonalEdgeStyle;rounded=0;orthogonalLoop=1;jettySize=auto;html=1;exitX=1;exitY=0.5;exitDx=0;exitDy=0;entryX=0.25;entryY=0;entryDx=0;entryDy=0;dashed=1;startArrow=none;startFill=0;endArrow=none;endFill=0;" edge="1" parent="1" source="JWJ-mv_oLn-hZATooN6I-13" target="JWJ-mv_oLn-hZATooN6I-1">
          <mxGeometry relative="1" as="geometry" />
        </mxCell>
        <mxCell id="JWJ-mv_oLn-hZATooN6I-13" value="MAVROS" style="rounded=0;whiteSpace=wrap;html=1;fillColor=#dae8fc;strokeColor=#6c8ebf;fontStyle=1;dashed=1;" vertex="1" parent="1">
          <mxGeometry x="650" y="460" width="120" height="60" as="geometry" />
        </mxCell>
        <mxCell id="JWJ-mv_oLn-hZATooN6I-22" style="edgeStyle=orthogonalEdgeStyle;rounded=0;orthogonalLoop=1;jettySize=auto;html=1;entryX=0.75;entryY=0;entryDx=0;entryDy=0;dashed=1;startArrow=none;startFill=0;endArrow=none;endFill=0;exitX=0.5;exitY=0;exitDx=0;exitDy=0;" edge="1" parent="1" source="JWJ-mv_oLn-hZATooN6I-21" target="JWJ-mv_oLn-hZATooN6I-1">
          <mxGeometry relative="1" as="geometry">
            <mxPoint x="470" y="460" as="sourcePoint" />
            <Array as="points">
              <mxPoint x="450" y="420" />
              <mxPoint x="930" y="420" />
            </Array>
          </mxGeometry>
        </mxCell>
        <mxCell id="JWJ-mv_oLn-hZATooN6I-21" value="QGroundControl" style="rounded=0;whiteSpace=wrap;html=1;fillColor=#fff2cc;strokeColor=#d6b656;fontStyle=1;dashed=1;" vertex="1" parent="1">
          <mxGeometry x="390" y="460" width="120" height="60" as="geometry" />
        </mxCell>
        <mxCell id="JWJ-mv_oLn-hZATooN6I-36" style="edgeStyle=orthogonalEdgeStyle;rounded=0;orthogonalLoop=1;jettySize=auto;html=1;exitX=0.5;exitY=1;exitDx=0;exitDy=0;dashed=1;startArrow=none;startFill=0;endArrow=none;endFill=0;entryX=0;entryY=0.5;entryDx=0;entryDy=0;" edge="1" parent="1" source="JWJ-mv_oLn-hZATooN6I-24" target="JWJ-mv_oLn-hZATooN6I-32">
          <mxGeometry relative="1" as="geometry">
            <mxPoint x="510" y="705" as="targetPoint" />
            <Array as="points">
              <mxPoint x="450" y="720" />
            </Array>
          </mxGeometry>
        </mxCell>
        <mxCell id="JWJ-mv_oLn-hZATooN6I-38" style="edgeStyle=orthogonalEdgeStyle;rounded=0;orthogonalLoop=1;jettySize=auto;html=1;exitX=0.25;exitY=1;exitDx=0;exitDy=0;entryX=0.75;entryY=1;entryDx=0;entryDy=0;startArrow=classic;startFill=1;endArrow=classic;endFill=1;" edge="1" parent="1" source="JWJ-mv_oLn-hZATooN6I-24" target="JWJ-mv_oLn-hZATooN6I-1">
          <mxGeometry relative="1" as="geometry">
            <Array as="points">
              <mxPoint x="420" y="780" />
              <mxPoint x="930" y="780" />
            </Array>
          </mxGeometry>
        </mxCell>
        <mxCell id="JWJ-mv_oLn-hZATooN6I-39" value="UART/WIFI/Radio/LTE" style="edgeLabel;html=1;align=center;verticalAlign=middle;resizable=0;points=[];" vertex="1" connectable="0" parent="JWJ-mv_oLn-hZATooN6I-38">
          <mxGeometry x="0.167" y="3" relative="1" as="geometry">
            <mxPoint x="-70" y="-7" as="offset" />
          </mxGeometry>
        </mxCell>
        <mxCell id="JWJ-mv_oLn-hZATooN6I-24" value="Android/PC/IPad" style="rounded=0;whiteSpace=wrap;html=1;fillColor=#d5e8d4;strokeColor=#82b366;fontStyle=1" vertex="1" parent="1">
          <mxGeometry x="390" y="570" width="120" height="60" as="geometry" />
        </mxCell>
        <mxCell id="JWJ-mv_oLn-hZATooN6I-28" style="edgeStyle=orthogonalEdgeStyle;rounded=0;orthogonalLoop=1;jettySize=auto;html=1;exitX=1;exitY=0.5;exitDx=0;exitDy=0;startArrow=classic;startFill=1;" edge="1" parent="1" source="JWJ-mv_oLn-hZATooN6I-24">
          <mxGeometry relative="1" as="geometry">
            <mxPoint x="780" y="610" as="sourcePoint" />
            <mxPoint x="650" y="600" as="targetPoint" />
          </mxGeometry>
        </mxCell>
        <mxCell id="JWJ-mv_oLn-hZATooN6I-30" style="edgeStyle=orthogonalEdgeStyle;rounded=0;orthogonalLoop=1;jettySize=auto;html=1;exitX=0.5;exitY=0;exitDx=0;exitDy=0;entryX=0.5;entryY=1;entryDx=0;entryDy=0;dashed=1;startArrow=none;startFill=0;endArrow=none;endFill=0;" edge="1" parent="1" source="JWJ-mv_oLn-hZATooN6I-24" target="JWJ-mv_oLn-hZATooN6I-21">
          <mxGeometry relative="1" as="geometry">
            <mxPoint x="770.0000000000002" y="580" as="sourcePoint" />
            <mxPoint x="770.0000000000002" y="530" as="targetPoint" />
          </mxGeometry>
        </mxCell>
        <mxCell id="JWJ-mv_oLn-hZATooN6I-32" value="MAVSDK" style="rounded=0;whiteSpace=wrap;html=1;fillColor=#dae8fc;strokeColor=#6c8ebf;fontStyle=1;dashed=1;" vertex="1" parent="1">
          <mxGeometry x="650" y="690" width="120" height="60" as="geometry" />
        </mxCell>
        <mxCell id="JWJ-mv_oLn-hZATooN6I-40" value="UART/WIFI/Radio/LTE" style="edgeLabel;html=1;align=center;verticalAlign=middle;resizable=0;points=[];" vertex="1" connectable="0" parent="1">
          <mxGeometry x="584" y="590.0000000000002" as="geometry" />
        </mxCell>
        <mxCell id="JWJ-mv_oLn-hZATooN6I-41" value="" style="shape=image;verticalLabelPosition=bottom;labelBackgroundColor=#ffffff;verticalAlign=top;aspect=fixed;imageAspect=0;image=https://mavlink.io/assets/site/logo_mavlink_small.png;" vertex="1" parent="1">
          <mxGeometry x="790" y="396" width="74" height="17.76" as="geometry" />
        </mxCell>
        <mxCell id="JWJ-mv_oLn-hZATooN6I-42" value="" style="shape=image;verticalLabelPosition=bottom;labelBackgroundColor=#ffffff;verticalAlign=top;aspect=fixed;imageAspect=0;image=https://mavlink.io/assets/site/logo_mavlink_small.png;" vertex="1" parent="1">
          <mxGeometry x="790" y="468" width="74" height="17.76" as="geometry" />
        </mxCell>
        <mxCell id="JWJ-mv_oLn-hZATooN6I-43" value="" style="shape=image;verticalLabelPosition=bottom;labelBackgroundColor=#ffffff;verticalAlign=top;aspect=fixed;imageAspect=0;image=https://mavlink.io/assets/site/logo_mavlink_small.png;" vertex="1" parent="1">
          <mxGeometry x="790" y="690" width="74" height="17.76" as="geometry" />
        </mxCell>
        <mxCell id="JWJ-mv_oLn-hZATooN6I-44" value="" style="shape=image;html=1;verticalAlign=top;verticalLabelPosition=bottom;labelBackgroundColor=#ffffff;imageAspect=0;aspect=fixed;image=https://cdn4.iconfinder.com/data/icons/logos-and-brands/512/267_Python_logo-128.png;dashed=1;" vertex="1" parent="1">
          <mxGeometry x="660" y="700" width="18" height="18" as="geometry" />
        </mxCell>
        <mxCell id="JWJ-mv_oLn-hZATooN6I-45" value="" style="shape=image;html=1;verticalAlign=top;verticalLabelPosition=bottom;labelBackgroundColor=#ffffff;imageAspect=0;aspect=fixed;image=https://cdn2.iconfinder.com/data/icons/strongicon-vol-24-free/24/filetype-16-128.png;dashed=1;" vertex="1" parent="1">
          <mxGeometry x="660" y="720" width="18" height="18" as="geometry" />
        </mxCell>
        <mxCell id="JWJ-mv_oLn-hZATooN6I-46" value="" style="shape=image;html=1;verticalAlign=top;verticalLabelPosition=bottom;labelBackgroundColor=#ffffff;imageAspect=0;aspect=fixed;image=https://cdn2.iconfinder.com/data/icons/strongicon-vol-24-free/24/filetype-16-128.png;dashed=1;" vertex="1" parent="1">
          <mxGeometry x="660" y="481" width="18" height="18" as="geometry" />
        </mxCell>
        <mxCell id="JWJ-mv_oLn-hZATooN6I-47" value="" style="shape=image;html=1;verticalAlign=top;verticalLabelPosition=bottom;labelBackgroundColor=#ffffff;imageAspect=0;aspect=fixed;image=https://cdn4.iconfinder.com/data/icons/logos-and-brands/512/181_Java_logo_logos-128.png;dashed=1;" vertex="1" parent="1">
          <mxGeometry x="740" y="698" width="20" height="20" as="geometry" />
        </mxCell>
        <mxCell id="JWJ-mv_oLn-hZATooN6I-48" value="" style="shape=image;html=1;verticalAlign=top;verticalLabelPosition=bottom;labelBackgroundColor=#ffffff;imageAspect=0;aspect=fixed;image=https://cdn0.iconfinder.com/data/icons/brands-outlined-3/232/swift-social-network-brand-logo-128.png;dashed=1;" vertex="1" parent="1">
          <mxGeometry x="740" y="720" width="18" height="18" as="geometry" />
        </mxCell>
      </root>
    </mxGraphModel>
  </diagram>
</mxfile>
